<?xml version="1.0" encoding="UTF-8" standalone="no"?>
<svg
   xmlns:dc="http://purl.org/dc/elements/1.1/"
   xmlns:cc="http://creativecommons.org/ns#"
   xmlns:rdf="http://www.w3.org/1999/02/22-rdf-syntax-ns#"
   xmlns:svg="http://www.w3.org/2000/svg"
   xmlns="http://www.w3.org/2000/svg"
   xmlns:sodipodi="http://sodipodi.sourceforge.net/DTD/sodipodi-0.dtd"
   xmlns:inkscape="http://www.inkscape.org/namespaces/inkscape"
   width="495.08246"
   height="495.08246"
   viewBox="0 0 396.06597 396.06597"
   version="1.2"
   id="svg2"
   inkscape:version="0.47pre4 r22446"
   sodipodi:docname="outoutout.svg">
  <metadata
     id="metadata85">
    <rdf:RDF>
      <cc:Work
         rdf:about="">
        <dc:format>image/svg+xml</dc:format>
        <dc:type
           rdf:resource="http://purl.org/dc/dcmitype/StillImage" />
        <dc:title></dc:title>
      </cc:Work>
    </rdf:RDF>
  </metadata>
  <defs
     id="defs83">
    <inkscape:perspective
       sodipodi:type="inkscape:persp3d"
       inkscape:vp_x="0 : 526.18109 : 1"
       inkscape:vp_y="0 : 1000 : 0"
       inkscape:vp_z="744.09448 : 526.18109 : 1"
       inkscape:persp3d-origin="372.04724 : 350.78739 : 1"
       id="perspective87" />
  </defs>
  <sodipodi:namedview
     pagecolor="#ffffff"
     bordercolor="#666666"
     borderopacity="1"
     objecttolerance="10"
     gridtolerance="10"
     guidetolerance="10"
     inkscape:pageopacity="0"
     inkscape:pageshadow="2"
     inkscape:window-width="1280"
     inkscape:window-height="782"
     id="namedview81"
     showgrid="false"
     inkscape:zoom="0.22425739"
     inkscape:cx="242.61594"
     inkscape:cy="75.149309"
     inkscape:window-x="0"
     inkscape:window-y="18"
     inkscape:window-maximized="0"
     inkscape:current-layer="svg2" />
  <g
     id="surface0"
     transform="matrix(1,0,0,-1,-103.54505,481.06433)">
    <path
       style="fill:#7f7f7f;fill-opacity:1;fill-rule:nonzero;stroke:#7f7f7f;stroke-width:0.3985;stroke-linecap:butt;stroke-linejoin:miter;stroke-miterlimit:10;stroke-opacity:1"
       d="m -0.00167158,5.45149e-4 0,28.345962851 425.20203158,0 0,-28.345962851 -425.20203158,0 z m 0,0"
       transform="matrix(0.930605,0,0,-0.930605,103.73202,480.87941)"
       id="path5" />
    <path
       style="fill:#7f7f7f;fill-opacity:1;fill-rule:nonzero;stroke:#7f7f7f;stroke-width:0.3985;stroke-linecap:butt;stroke-linejoin:miter;stroke-miterlimit:10;stroke-opacity:1"
       d="m -0.00167158,5.45149e-4 0,425.202024851 28.35015958,0 0,-425.202024851 -28.35015958,0 z m 0,0"
       transform="matrix(0.930605,0,0,-0.930605,103.73202,480.87941)"
       id="path7" />
    <path
       style="fill:#7f7f7f;fill-opacity:1;fill-rule:nonzero;stroke:#7f7f7f;stroke-width:0.3985;stroke-linecap:butt;stroke-linejoin:miter;stroke-miterlimit:10;stroke-opacity:1"
       d="m 396.85439,5.45149e-4 0,425.202024851 28.34597,0 0,-425.202024851 -28.34597,0 z m 0,0"
       transform="matrix(0.930605,0,0,-0.930605,103.73202,480.87941)"
       id="path9" />
    <path
       style="fill:#7f7f7f;fill-opacity:1;fill-rule:nonzero;stroke:#7f7f7f;stroke-width:0.3985;stroke-linecap:butt;stroke-linejoin:miter;stroke-miterlimit:10;stroke-opacity:1"
       d="m -0.00167158,396.85661 0,28.34596 425.20203158,0 0,-28.34596 -425.20203158,0 z m 0,0"
       transform="matrix(0.930605,0,0,-0.930605,103.73202,480.87941)"
       id="path11" />
    <path
       style="fill:#000000;fill-opacity:1;fill-rule:nonzero;stroke:#000000;stroke-width:0.3985;stroke-linecap:butt;stroke-linejoin:miter;stroke-miterlimit:10;stroke-opacity:1"
       d="m 28.348488,28.346508 0,28.345962 28.345963,0 0,-28.345962 -28.345963,0 z m 0,0"
       transform="matrix(0.930605,0,0,-0.930605,103.73202,480.87941)"
       id="path13" />
    <path
       style="fill:#000000;fill-opacity:1;fill-rule:nonzero;stroke:#000000;stroke-width:0.3985;stroke-linecap:butt;stroke-linejoin:miter;stroke-miterlimit:10;stroke-opacity:1"
       d="m 56.694451,28.346508 0,28.345962 28.345962,0 0,-28.345962 -28.345962,0 z m 0,0"
       transform="matrix(0.930605,0,0,-0.930605,103.73202,480.87941)"
       id="path15" />
    <path
       style="fill:#000000;fill-opacity:1;fill-rule:nonzero;stroke:#000000;stroke-width:0.3985;stroke-linecap:butt;stroke-linejoin:miter;stroke-miterlimit:10;stroke-opacity:1"
       d="m 85.040413,28.346508 0,28.345962 28.345967,0 0,-28.345962 -28.345967,0 z m 0,0"
       transform="matrix(0.930605,0,0,-0.930605,103.73202,480.87941)"
       id="path17" />
    <path
       style="fill:#000000;fill-opacity:1;fill-rule:nonzero;stroke:#000000;stroke-width:0.3985;stroke-linecap:butt;stroke-linejoin:miter;stroke-miterlimit:10;stroke-opacity:1"
       d="m 113.38638,28.346508 0,28.345962 28.34596,0 0,-28.345962 -28.34596,0 z m 0,0"
       transform="matrix(0.930605,0,0,-0.930605,103.73202,480.87941)"
       id="path19" />
    <path
       style="fill:#000000;fill-opacity:1;fill-rule:nonzero;stroke:#000000;stroke-width:0.3985;stroke-linecap:butt;stroke-linejoin:miter;stroke-miterlimit:10;stroke-opacity:1"
       d="m 113.38638,56.69247 0,28.345962 28.34596,0 0,-28.345962 -28.34596,0 z m 0,0"
       transform="matrix(0.930605,0,0,-0.930605,103.73202,480.87941)"
       id="path21" />
    <path
       style="fill:#000000;fill-opacity:1;fill-rule:nonzero;stroke:#000000;stroke-width:0.3985;stroke-linecap:butt;stroke-linejoin:miter;stroke-miterlimit:10;stroke-opacity:1"
       d="m 141.73234,56.69247 0,28.345962 28.35016,0 0,-28.345962 -28.35016,0 z m 0,0"
       transform="matrix(0.930605,0,0,-0.930605,103.73202,480.87941)"
       id="path23" />
    <path
       style="fill:#000000;fill-opacity:1;fill-rule:nonzero;stroke:#000000;stroke-width:0.3985;stroke-linecap:butt;stroke-linejoin:miter;stroke-miterlimit:10;stroke-opacity:1"
       d="m 141.73234,85.038432 0,28.350158 28.35016,0 0,-28.350158 -28.35016,0 z m 0,0"
       transform="matrix(0.930605,0,0,-0.930605,103.73202,480.87941)"
       id="path25" />
    <path
       style="fill:#000000;fill-opacity:1;fill-rule:nonzero;stroke:#000000;stroke-width:0.3985;stroke-linecap:butt;stroke-linejoin:miter;stroke-miterlimit:10;stroke-opacity:1"
       d="m 141.73234,113.38859 0,28.34596 28.35016,0 0,-28.34596 -28.35016,0 z m 0,0"
       transform="matrix(0.930605,0,0,-0.930605,103.73202,480.87941)"
       id="path27" />
    <path
       style="fill:#000000;fill-opacity:1;fill-rule:nonzero;stroke:#000000;stroke-width:0.3985;stroke-linecap:butt;stroke-linejoin:miter;stroke-miterlimit:10;stroke-opacity:1"
       d="m 141.73234,141.73455 0,28.34597 28.35016,0 0,-28.34597 -28.35016,0 z m 0,0"
       transform="matrix(0.930605,0,0,-0.930605,103.73202,480.87941)"
       id="path29" />
    <path
       style="fill:#000000;fill-opacity:1;fill-rule:nonzero;stroke:#000000;stroke-width:0.3985;stroke-linecap:butt;stroke-linejoin:miter;stroke-miterlimit:10;stroke-opacity:1"
       d="m 141.73234,170.08052 0,28.34596 28.35016,0 0,-28.34596 -28.35016,0 z m 0,0"
       transform="matrix(0.930605,0,0,-0.930605,103.73202,480.87941)"
       id="path31" />
    <path
       style="fill:#000000;fill-opacity:1;fill-rule:nonzero;stroke:#000000;stroke-width:0.3985;stroke-linecap:butt;stroke-linejoin:miter;stroke-miterlimit:10;stroke-opacity:1"
       d="m 141.73234,198.42648 0,28.34596 28.35016,0 0,-28.34596 -28.35016,0 z m 0,0"
       transform="matrix(0.930605,0,0,-0.930605,103.73202,480.87941)"
       id="path33" />
    <path
       style="fill:#000000;fill-opacity:1;fill-rule:nonzero;stroke:#000000;stroke-width:0.3985;stroke-linecap:butt;stroke-linejoin:miter;stroke-miterlimit:10;stroke-opacity:1"
       d="m 141.73234,226.77244 0,28.35016 28.35016,0 0,-28.35016 -28.35016,0 z m 0,0"
       transform="matrix(0.930605,0,0,-0.930605,103.73202,480.87941)"
       id="path35" />
    <path
       style="fill:#000000;fill-opacity:1;fill-rule:nonzero;stroke:#000000;stroke-width:0.3985;stroke-linecap:butt;stroke-linejoin:miter;stroke-miterlimit:10;stroke-opacity:1"
       d="m 141.73234,255.1226 0,28.34596 28.35016,0 0,-28.34596 -28.35016,0 z m 0,0"
       transform="matrix(0.930605,0,0,-0.930605,103.73202,480.87941)"
       id="path37" />
    <path
       style="fill:#ff0000;fill-opacity:1;fill-rule:nonzero;stroke:#000000;stroke-width:0.3985;stroke-linecap:butt;stroke-linejoin:miter;stroke-miterlimit:10;stroke-opacity:1"
       d="m 28.348488,283.46856 0,28.34597 28.345963,0 0,-28.34597 -28.345963,0 z m 0,0"
       transform="matrix(0.930605,0,0,-0.930605,103.73202,480.87941)"
       id="path39" />
    <path
       style="fill:#000000;fill-opacity:1;fill-rule:nonzero;stroke:#000000;stroke-width:0.3985;stroke-linecap:butt;stroke-linejoin:miter;stroke-miterlimit:10;stroke-opacity:1"
       d="m 141.73234,283.46856 0,28.34597 28.35016,0 0,-28.34597 -28.35016,0 z m 0,0"
       transform="matrix(0.930605,0,0,-0.930605,103.73202,480.87941)"
       id="path41" />
    <path
       style="fill:#000000;fill-opacity:1;fill-rule:nonzero;stroke:#000000;stroke-width:0.3985;stroke-linecap:butt;stroke-linejoin:miter;stroke-miterlimit:10;stroke-opacity:1"
       d="m 28.348488,311.81453 0,28.34596 28.345963,0 0,-28.34596 -28.345963,0 z m 0,0"
       transform="matrix(0.930605,0,0,-0.930605,103.73202,480.87941)"
       id="path43" />
    <path
       style="fill:#00ff00;fill-opacity:1;fill-rule:nonzero;stroke:#000000;stroke-width:0.3985;stroke-linecap:butt;stroke-linejoin:miter;stroke-miterlimit:10;stroke-opacity:1"
       d="m 85.040413,311.81453 0,28.34596 28.345967,0 0,-28.34596 -28.345967,0 z m 0,0"
       transform="matrix(0.930605,0,0,-0.930605,103.73202,480.87941)"
       id="path45" />
    <path
       style="fill:#000000;fill-opacity:1;fill-rule:nonzero;stroke:#000000;stroke-width:0.3985;stroke-linecap:butt;stroke-linejoin:miter;stroke-miterlimit:10;stroke-opacity:1"
       d="m 113.38638,311.81453 0,28.34596 28.34596,0 0,-28.34596 -28.34596,0 z m 0,0"
       transform="matrix(0.930605,0,0,-0.930605,103.73202,480.87941)"
       id="path47" />
    <path
       style="fill:#000000;fill-opacity:1;fill-rule:nonzero;stroke:#000000;stroke-width:0.3985;stroke-linecap:butt;stroke-linejoin:miter;stroke-miterlimit:10;stroke-opacity:1"
       d="m 141.73234,311.81453 0,28.34596 28.35016,0 0,-28.34596 -28.35016,0 z m 0,0"
       transform="matrix(0.930605,0,0,-0.930605,103.73202,480.87941)"
       id="path49" />
    <path
       style="fill:#000000;fill-opacity:1;fill-rule:nonzero;stroke:#000000;stroke-width:0.3985;stroke-linecap:butt;stroke-linejoin:miter;stroke-miterlimit:10;stroke-opacity:1"
       d="m 28.348488,340.16049 0,28.34596 28.345963,0 0,-28.34596 -28.345963,0 z m 0,0"
       transform="matrix(0.930605,0,0,-0.930605,103.73202,480.87941)"
       id="path51" />
    <path
       style="fill:#000000;fill-opacity:1;fill-rule:nonzero;stroke:#000000;stroke-width:0.3985;stroke-linecap:butt;stroke-linejoin:miter;stroke-miterlimit:10;stroke-opacity:1"
       d="m 28.348488,368.50645 0,28.35016 28.345963,0 0,-28.35016 -28.345963,0 z m 0,0"
       transform="matrix(0.930605,0,0,-0.930605,103.73202,480.87941)"
       id="path53" />
    <path
       style="fill:#000000;fill-opacity:1;fill-rule:nonzero;stroke:#000000;stroke-width:0.3985;stroke-linecap:butt;stroke-linejoin:miter;stroke-miterlimit:10;stroke-opacity:1"
       d="m 56.694451,368.50645 0,28.35016 28.345962,0 0,-28.35016 -28.345962,0 z m 0,0"
       transform="matrix(0.930605,0,0,-0.930605,103.73202,480.87941)"
       id="path55" />
    <path
       style="fill:#000000;fill-opacity:1;fill-rule:nonzero;stroke:#000000;stroke-width:0.3985;stroke-linecap:butt;stroke-linejoin:miter;stroke-miterlimit:10;stroke-opacity:1"
       d="m 85.040413,368.50645 0,28.35016 28.345967,0 0,-28.35016 -28.345967,0 z m 0,0"
       transform="matrix(0.930605,0,0,-0.930605,103.73202,480.87941)"
       id="path57" />
    <path
       style="fill:#000000;fill-opacity:1;fill-rule:nonzero;stroke:#000000;stroke-width:0.3985;stroke-linecap:butt;stroke-linejoin:miter;stroke-miterlimit:10;stroke-opacity:1"
       d="m 113.38638,368.50645 0,28.35016 28.34596,0 0,-28.35016 -28.34596,0 z m 0,0"
       transform="matrix(0.930605,0,0,-0.930605,103.73202,480.87941)"
       id="path59" />
    <path
       style="fill:#000000;fill-opacity:1;fill-rule:nonzero;stroke:#000000;stroke-width:0.3985;stroke-linecap:butt;stroke-linejoin:miter;stroke-miterlimit:10;stroke-opacity:1"
       d="m 141.73234,368.50645 0,28.35016 28.35016,0 0,-28.35016 -28.35016,0 z m 0,0"
       transform="matrix(0.930605,0,0,-0.930605,103.73202,480.87941)"
       id="path61" />
    <path
       style="fill:#000000;fill-opacity:1;fill-rule:nonzero;stroke:#000000;stroke-width:0.3985;stroke-linecap:butt;stroke-linejoin:miter;stroke-miterlimit:10;stroke-opacity:1"
       d="m 170.0825,368.50645 0,28.35016 28.34596,0 0,-28.35016 -28.34596,0 z m 0,0"
       transform="matrix(0.930605,0,0,-0.930605,103.73202,480.87941)"
       id="path63" />
    <path
       style="fill:#000000;fill-opacity:1;fill-rule:nonzero;stroke:#000000;stroke-width:0.3985;stroke-linecap:butt;stroke-linejoin:miter;stroke-miterlimit:10;stroke-opacity:1"
       d="m 198.42846,368.50645 0,28.35016 28.34596,0 0,-28.35016 -28.34596,0 z m 0,0"
       transform="matrix(0.930605,0,0,-0.930605,103.73202,480.87941)"
       id="path65" />
    <path
       style="fill:#000000;fill-opacity:1;fill-rule:nonzero;stroke:#000000;stroke-width:0.3985;stroke-linecap:butt;stroke-linejoin:miter;stroke-miterlimit:10;stroke-opacity:1"
       d="m 226.77442,368.50645 0,28.35016 28.34596,0 0,-28.35016 -28.34596,0 z m 0,0"
       transform="matrix(0.930605,0,0,-0.930605,103.73202,480.87941)"
       id="path67" />
    <path
       style="fill:#000000;fill-opacity:1;fill-rule:nonzero;stroke:#000000;stroke-width:0.3985;stroke-linecap:butt;stroke-linejoin:miter;stroke-miterlimit:10;stroke-opacity:1"
       d="m 255.12038,368.50645 0,28.35016 28.34597,0 0,-28.35016 -28.34597,0 z m 0,0"
       transform="matrix(0.930605,0,0,-0.930605,103.73202,480.87941)"
       id="path69" />
    <path
       style="fill:#000000;fill-opacity:1;fill-rule:nonzero;stroke:#000000;stroke-width:0.3985;stroke-linecap:butt;stroke-linejoin:miter;stroke-miterlimit:10;stroke-opacity:1"
       d="m 283.46635,368.50645 0,28.35016 28.35016,0 0,-28.35016 -28.35016,0 z m 0,0"
       transform="matrix(0.930605,0,0,-0.930605,103.73202,480.87941)"
       id="path71" />
    <path
       style="fill:#000000;fill-opacity:1;fill-rule:nonzero;stroke:#000000;stroke-width:0.3985;stroke-linecap:butt;stroke-linejoin:miter;stroke-miterlimit:10;stroke-opacity:1"
       d="m 311.81651,368.50645 0,28.35016 28.34596,0 0,-28.35016 -28.34596,0 z m 0,0"
       transform="matrix(0.930605,0,0,-0.930605,103.73202,480.87941)"
       id="path73" />
    <path
       style="fill:#000000;fill-opacity:1;fill-rule:nonzero;stroke:#000000;stroke-width:0.3985;stroke-linecap:butt;stroke-linejoin:miter;stroke-miterlimit:10;stroke-opacity:1"
       d="m 340.16247,368.50645 0,28.35016 28.34596,0 0,-28.35016 -28.34596,0 z m 0,0"
       transform="matrix(0.930605,0,0,-0.930605,103.73202,480.87941)"
       id="path75" />
    <path
       style="fill:#000000;fill-opacity:1;fill-rule:nonzero;stroke:#000000;stroke-width:0.3985;stroke-linecap:butt;stroke-linejoin:miter;stroke-miterlimit:10;stroke-opacity:1"
       d="m 368.50843,368.50645 0,28.35016 28.34596,0 0,-28.35016 -28.34596,0 z m 0,0"
       transform="matrix(0.930605,0,0,-0.930605,103.73202,480.87941)"
       id="path77" />
    <path
       style="fill:none;stroke:#7f7f7f;stroke-width:0.19925;stroke-linecap:butt;stroke-linejoin:miter;stroke-miterlimit:10;stroke-opacity:1"
       d="m -0.00167158,5.45149e-4 425.20203158,0 M -0.00167158,28.346508 l 425.20203158,0 M -0.00167158,56.69247 l 425.20203158,0 m -425.20203158,28.345962 425.20203158,0 m -425.20203158,28.350158 425.20203158,0 m -425.20203158,28.34596 425.20203158,0 m -425.20203158,28.34597 425.20203158,0 m -425.20203158,28.34596 425.20203158,0 m -425.20203158,28.34596 425.20203158,0 m -425.20203158,28.35016 425.20203158,0 m -425.20203158,28.34596 425.20203158,0 m -425.20203158,28.34597 425.20203158,0 m -425.20203158,28.34596 425.20203158,0 m -425.20203158,28.34596 425.20203158,0 m -425.20203158,28.35016 425.20203158,0 m -425.20203158,28.33757 425.20203158,0 M -0.00167158,5.45149e-4 l 0,425.202024851 M 28.348488,5.45149e-4 l 0,425.202024851 M 56.694451,5.45149e-4 l 0,425.202024851 M 85.040413,5.45149e-4 l 0,425.202024851 M 113.38638,5.45149e-4 l 0,425.202024851 M 141.73234,5.45149e-4 l 0,425.202024851 M 170.0825,5.45149e-4 l 0,425.202024851 M 198.42846,5.45149e-4 l 0,425.202024851 M 226.77442,5.45149e-4 l 0,425.202024851 M 255.12038,5.45149e-4 l 0,425.202024851 M 283.46635,5.45149e-4 l 0,425.202024851 M 311.81651,5.45149e-4 l 0,425.202024851 M 340.16247,5.45149e-4 l 0,425.202024851 M 368.50843,5.45149e-4 l 0,425.202024851 M 396.85439,5.45149e-4 l 0,425.202024851 M 425.19196,5.45149e-4 l 0,425.202024851"
       transform="matrix(0.930605,0,0,-0.930605,103.73202,480.87941)"
       id="path79" />
  </g>
</svg>
